<svg xmlns="http://www.w3.org/2000/svg" viewBox="0 0 29.5 29.5"><path d="M8 11.6c0 .2-.1.4-.1.6l-.8 2.4h1.8l-.8-2.4c0-.2 0-.4-.1-.6z"/><path d="M14.7 0C6.6 0 0 6.6 0 14.7s6.6 14.7 14.7 14.7 14.7-6.6 14.7-14.7C29.5 6.6 22.9 0 14.7 0zM9.8 17.4l-.5-1.6H6.8l-.5 1.6H4.6l2.6-7H9l2.5 7H9.8zm7.3 0h-1.5v-2.8c0-.8-.3-1.2-.8-1.2-.3 0-.5.1-.7.3-.2.2-.3.5-.3.8v2.9h-1.6v-5h1.6v.8c.4-.6.9-.9 1.6-.9 1.1 0 1.7.7 1.7 2.1v3zm2.8 0h-1.6v-5h1.6v5zm-.1-6.1c-.2.2-.4.2-.6.2-.3 0-.5-.1-.6-.2s-.3-.3-.3-.6c0-.2.1-.4.3-.6.2-.1.4-.2.6-.2.3 0 .5.1.6.2.2.1.2.3.2.6s-.1.4-.2.6zm4.7 5.3c-.1.2-.3.4-.5.5-.2.1-.5.2-.7.3-.3.1-.6.1-.9.1-.6 0-1.1-.1-1.5-.3V16c.3.2.5.3.8.3.3.1.5.1.7.1.3 0 .5 0 .7-.1s.2-.2.2-.3c0-.1 0-.2-.1-.2s-.2-.1-.3-.2c-.1 0-.2-.1-.4-.1-.1 0-.3-.1-.4-.1-.2-.1-.4-.2-.5-.2-.2-.1-.3-.2-.4-.3s-.2-.2-.2-.4-.1-.3-.1-.5c0-.3.1-.5.2-.7s.3-.4.5-.5c.2-.1.4-.2.7-.3s.5-.1.8-.1c.2 0 .4 0 .7.1.2 0 .5.1.7.1v1.2l-.6-.3c-.2-.1-.4-.1-.7-.1h-.3c-.1 0-.2 0-.2.1-.1 0-.1.1-.2.1 0 .1-.1.1-.1.2s0 .2.1.2l.2.2c.1 0 .2.1.3.1s.2.1.3.1c.2.1.4.2.6.2.2.1.3.2.4.3.1.1.2.2.3.4.1.2.1.3.1.6 0 .2 0 .5-.2.7z"/></svg>